<svg xmlns="http://www.w3.org/2000/svg" xmlns:xlink="http://www.w3.org/1999/xlink" version="1.1" x="0px" y="0px" viewBox="0 0 1000 1000" enable-background="new 0 0 1000 1000" xml:space="preserve" style="max-width:100%" height="100%">
<path fill-rule="evenodd" clip-rule="evenodd" d="M732.5,508c0,15.119-8.137,28.332-20.275,35.517L410.207,721.984  c-0.107,0.067-0.215,0.121-0.309,0.188l-0.174,0.095c-6.137,3.639-13.32,5.733-20.975,5.733c-22.773,0-41.25-18.463-41.25-41.25  
v-357.5c0-22.773,18.477-41.25,41.25-41.25c7.654,0,14.838,2.108,20.975,5.747v-0.014l0.174,0.094  
c0.094,0.081,0.201,0.134,0.309,0.202l302.018,178.454C724.363,479.681,732.5,492.894,732.5,508" style="" fill="currentColor">
</path>
</svg>