<svg xmlns="http://www.w3.org/2000/svg" viewBox="0 0 32 32" x="0px" y="0px" style="max-width:100%" height="100%">
<title style="" fill="currentColor"> Calendar</title>
<g data-name="Layer 17" style="" fill="currentColor">
<path d="M2,27a3,3,0,0,0,3,3H27a3,3,0,0,0,3-3V13H2ZM22.5,15h2a1,1,0,0,1,0,2h-2a1,1,0,0,1,0-2Zm0,
4h2a1,1,0,0,1,0,2h-2a1,1,0,0,1,0-2Zm0,4h2a1,1,0,0,1,0,2h-2a1,1,0,0,1,0-2Zm-5-8h2a1,1,0,0,1,0,2h-2a1,
1,0,0,1,0-2Zm0,4h2a1,1,0,0,1,0,2h-2a1,1,0,0,1,0-2Zm0,4h2a1,1,0,0,1,0,2h-2a1,1,0,0,1,0-2Zm-5-8h2a1,1,0,
0,1,0,2h-2a1,1,0,0,1,0-2Zm0,4h2a1,1,0,0,1,0,2h-2a1,1,0,0,1,0-2Zm0,4h2a1,1,0,0,1,0,2h-2a1,1,0,0,1,0-2Zm-5-8h2a1,
1,0,0,1,0,2h-2a1,1,0,0,1,0-2Zm0,4h2a1,1,0,0,1,0,2h-2a1,1,0,0,1,0-2Zm0,4h2a1,1,0,0,1,0,2h-2a1,1,0,0,1,0-2ZM30,9v2H2V9A3
,3,0,0,1,5,6H7V3A1,1,0,0,1,9,3V6H23V3a1,1,0,0,1,2,0V6h2A3,3,0,0,1,30,9Z" style="" fill="currentColor">
</path>
</g>
</svg>